<svg width="21" height="21" viewBox="0 0 21 21" fill="none" xmlns="http://www.w3.org/2000/svg">
<path d="M4.78809 2.96153C2.11866 4.89646 0.783954 5.86392 0.259737 7.293C0.217684 7.40764 0.17986 7.52378 0.14634 7.64118C-0.271513 9.10474 0.238301 10.6701 1.25793 13.8009C2.27756 16.9317 2.78737 18.4971 3.98769 19.4361C4.08398 19.5114 4.183 19.5832 4.28457 19.6513C4.71163 19.9376 5.18236 20.1273 5.74535 20.253V15.7982C5.74535 13.1784 7.87408 11.0546 10.5 11.0546C13.1259 11.0546 15.2546 13.1784 15.2546 15.7982V20.253C15.8176 20.1273 16.2884 19.9376 16.7154 19.6513C16.817 19.5832 16.916 19.5114 17.0123 19.4361C18.2126 18.4971 18.7224 16.9317 19.7421 13.8009C20.7617 10.6701 21.2715 9.10474 20.8537 7.64118C20.8201 7.52378 20.7823 7.40764 20.7403 7.293C20.216 5.86392 18.8813 4.89646 16.2119 2.96154C13.5425 1.02662 12.2078 0.0591448 10.6835 0.00335648C10.5612 -0.00111883 10.4388 -0.00111883 10.3165 0.00335648C8.79222 0.0591448 7.4575 1.02661 4.78809 2.96153Z" fill="#987EF5"/>
<path fill-rule="evenodd" clip-rule="evenodd" d="M13.7532 20.4454V15.7982C13.7532 14.0057 12.2967 12.5526 10.5 12.5526C8.70331 12.5526 7.24682 14.0057 7.24682 15.7982V20.4454C8.12063 20.5 9.17787 20.5 10.5 20.5C11.8221 20.5 12.8794 20.5 13.7532 20.4454ZM11.2507 15.7982C11.2507 15.3845 10.9146 15.0492 10.5 15.0492C10.0854 15.0492 9.74926 15.3845 9.74926 15.7982V17.7955C9.74926 18.2091 10.0854 18.5445 10.5 18.5445C10.9146 18.5445 11.2507 18.2091 11.2507 17.7955V15.7982Z" fill="#987EF5"/>
</svg>
