<svg width="18" height="18" viewBox="0 0 18 18" fill="none" xmlns="http://www.w3.org/2000/svg">
<path d="M1.60692 5.67842H5.2281C5.42735 5.67842 5.61844 5.60367 5.75934 5.4706C5.90023 5.33754 5.97938 5.15706 5.97938 4.96888C5.97938 4.7807 5.90023 4.60022 5.75934 4.46716C5.61844 4.33409 5.42735 4.25934 5.2281 4.25934H2.97425C4.02726 2.93394 5.53822 1.99841 7.2451 1.61498C8.95197 1.23156 10.7471 1.42443 12.3192 2.16014C13.8913 2.89585 15.1411 4.12801 15.852 5.64292C16.5629 7.15783 16.69 8.85994 16.2112 10.4541C15.7324 12.0482 14.678 13.4338 13.2308 14.3706C11.7836 15.3074 10.0349 15.7362 8.28792 15.5828C6.54097 15.4294 4.90596 14.7034 3.66644 13.5307C2.42693 12.3579 1.66109 10.8125 1.50174 9.16229C1.49699 9.06663 1.47178 8.97287 1.42764 8.88665C1.38349 8.80044 1.32133 8.72356 1.24488 8.66064C1.16844 8.59772 1.0793 8.55006 0.982843 8.52055C0.88638 8.49103 0.78459 8.48026 0.683603 8.48889C0.582617 8.49751 0.484525 8.52536 0.395236 8.57074C0.305948 8.61613 0.227311 8.67811 0.164063 8.75297C0.100816 8.82782 0.0542663 8.91399 0.0272195 9.00629C0.000172716 9.09858 -0.00681168 9.19509 0.00668704 9.29001C0.195641 11.2413 1.09143 13.0714 2.54294 14.4714C3.99444 15.8715 5.91284 16.7559 7.9745 16.9755C10.0362 17.195 12.1149 16.7363 13.8601 15.6766C15.6052 14.6169 16.91 13.0212 17.5543 11.1586C18.1986 9.29605 18.1429 7.28059 17.3967 5.45224C16.6505 3.6239 15.2595 2.09457 13.4582 1.12225C11.6569 0.149931 9.55571 -0.205878 7.50897 0.114847C5.46223 0.435572 3.59525 1.4132 2.22297 2.88282V1.42116C2.22297 1.23297 2.14382 1.0525 2.00292 0.919433C1.86203 0.786368 1.67094 0.711612 1.47169 0.711612C1.27244 0.711612 1.08134 0.786368 0.940451 0.919433C0.799558 1.0525 0.720405 1.23297 0.720405 1.42116V4.96888C0.720405 5.15706 0.799558 5.33754 0.940451 5.4706C1.08134 5.60367 1.27244 5.67842 1.47169 5.67842H1.60692ZM8.23323 4.25934C8.43248 4.25934 8.62357 4.33409 8.76447 4.46716C8.90536 4.60022 8.98451 4.7807 8.98451 4.96888V8.5166H11.2384C11.4376 8.5166 11.6287 8.59136 11.7696 8.72442C11.9105 8.85749 11.9896 9.03796 11.9896 9.22615C11.9896 9.41433 11.9105 9.59481 11.7696 9.72787C11.6287 9.86094 11.4376 9.93569 11.2384 9.93569H8.23323C8.03398 9.93569 7.84289 9.86094 7.70199 9.72787C7.5611 9.59481 7.48195 9.41433 7.48195 9.22615V4.96888C7.48195 4.7807 7.5611 4.60022 7.70199 4.46716C7.84289 4.33409 8.03398 4.25934 8.23323 4.25934Z" fill="white"/>
</svg>
