<svg width="84" height="16" viewBox="0 0 84 16" fill="none" xmlns="http://www.w3.org/2000/svg">
<path d="M4.12891 0.78125L8.23047 11.6797L12.3223 0.78125H15.5156V15H13.0547V10.3125L13.2988 4.04297L9.09961 15H7.33203L3.14258 4.05273L3.38672 10.3125V15H0.925781V0.78125H4.12891ZM22.8691 15.1953C21.3652 15.1953 20.1445 14.7233 19.207 13.7793C18.276 12.8288 17.8105 11.5658 17.8105 9.99023V9.69727C17.8105 8.64258 18.0124 7.70182 18.416 6.875C18.8262 6.04167 19.3991 5.39388 20.1348 4.93164C20.8704 4.4694 21.6908 4.23828 22.5957 4.23828C24.0345 4.23828 25.1445 4.69727 25.9258 5.61523C26.7135 6.5332 27.1074 7.83203 27.1074 9.51172V10.4688H20.2031C20.2747 11.3411 20.5645 12.0312 21.0723 12.5391C21.5866 13.0469 22.2311 13.3008 23.0059 13.3008C24.0931 13.3008 24.9785 12.8613 25.6621 11.9824L26.9414 13.2031C26.5182 13.8346 25.9518 14.3262 25.2422 14.6777C24.5391 15.0228 23.748 15.1953 22.8691 15.1953ZM22.5859 6.14258C21.9349 6.14258 21.4076 6.37044 21.0039 6.82617C20.6068 7.2819 20.3529 7.91667 20.2422 8.73047H24.7637V8.55469C24.7116 7.76042 24.5 7.16146 24.1289 6.75781C23.7578 6.34766 23.2435 6.14258 22.5859 6.14258ZM31.1895 4.43359L31.2578 5.53711C32 4.67122 33.0156 4.23828 34.3047 4.23828C35.7174 4.23828 36.6842 4.77865 37.2051 5.85938C37.9733 4.77865 39.054 4.23828 40.4473 4.23828C41.6126 4.23828 42.4785 4.56055 43.0449 5.20508C43.6178 5.84961 43.9108 6.80013 43.9238 8.05664V15H41.5508V8.125C41.5508 7.45443 41.4043 6.96289 41.1113 6.65039C40.8184 6.33789 40.3333 6.18164 39.6562 6.18164C39.1159 6.18164 38.6732 6.32812 38.3281 6.62109C37.9896 6.90755 37.752 7.28516 37.6152 7.75391L37.625 15H35.252V8.04688C35.2194 6.80339 34.5846 6.18164 33.3477 6.18164C32.3971 6.18164 31.7233 6.56901 31.3262 7.34375V15H28.9531V4.43359H31.1895ZM55.6328 9.82422C55.6328 11.4648 55.265 12.7702 54.5293 13.7402C53.8001 14.7103 52.7943 15.1953 51.5117 15.1953C50.2747 15.1953 49.3112 14.7493 48.6211 13.8574L48.5039 15H46.3555V0H48.7285V5.44922C49.4121 4.64193 50.3333 4.23828 51.4922 4.23828C52.7812 4.23828 53.7936 4.7168 54.5293 5.67383C55.265 6.63086 55.6328 7.96875 55.6328 9.6875V9.82422ZM53.2598 9.61914C53.2598 8.47331 53.0579 7.61393 52.6543 7.04102C52.2507 6.4681 51.6647 6.18164 50.8965 6.18164C49.8678 6.18164 49.1452 6.63086 48.7285 7.5293V11.8848C49.1517 12.8027 49.8809 13.2617 50.916 13.2617C51.6582 13.2617 52.2311 12.985 52.6348 12.4316C53.0384 11.8783 53.2467 11.0417 53.2598 9.92188V9.61914ZM62.2832 15.1953C60.7793 15.1953 59.5586 14.7233 58.6211 13.7793C57.6901 12.8288 57.2246 11.5658 57.2246 9.99023V9.69727C57.2246 8.64258 57.4264 7.70182 57.8301 6.875C58.2402 6.04167 58.8132 5.39388 59.5488 4.93164C60.2845 4.4694 61.1048 4.23828 62.0098 4.23828C63.4486 4.23828 64.5586 4.69727 65.3398 5.61523C66.1276 6.5332 66.5215 7.83203 66.5215 9.51172V10.4688H59.6172C59.6888 11.3411 59.9785 12.0312 60.4863 12.5391C61.0007 13.0469 61.6452 13.3008 62.4199 13.3008C63.5072 13.3008 64.3926 12.8613 65.0762 11.9824L66.3555 13.2031C65.9323 13.8346 65.3659 14.3262 64.6562 14.6777C63.9531 15.0228 63.1621 15.1953 62.2832 15.1953ZM62 6.14258C61.349 6.14258 60.8216 6.37044 60.418 6.82617C60.0208 7.2819 59.7669 7.91667 59.6562 8.73047H64.1777V8.55469C64.1257 7.76042 63.9141 7.16146 63.543 6.75781C63.1719 6.34766 62.6576 6.14258 62 6.14258ZM73.9043 6.60156C73.5918 6.54948 73.2695 6.52344 72.9375 6.52344C71.8503 6.52344 71.1178 6.9401 70.7402 7.77344V15H68.3672V4.43359H70.6328L70.6914 5.61523C71.2643 4.69727 72.0586 4.23828 73.0742 4.23828C73.4128 4.23828 73.6927 4.28385 73.9141 4.375L73.9043 6.60156ZM81.3262 12.1289C81.3262 11.7057 81.1504 11.3835 80.7988 11.1621C80.4538 10.9408 79.8776 10.7454 79.0703 10.5762C78.263 10.4069 77.5892 10.1921 77.0488 9.93164C75.8639 9.35872 75.2715 8.52865 75.2715 7.44141C75.2715 6.52995 75.6556 5.76823 76.4238 5.15625C77.1921 4.54427 78.1686 4.23828 79.3535 4.23828C80.6165 4.23828 81.6354 4.55078 82.4102 5.17578C83.1914 5.80078 83.582 6.61133 83.582 7.60742H81.209C81.209 7.15169 81.0397 6.77409 80.7012 6.47461C80.3626 6.16862 79.9134 6.01562 79.3535 6.01562C78.8327 6.01562 78.4062 6.13607 78.0742 6.37695C77.7487 6.61784 77.5859 6.9401 77.5859 7.34375C77.5859 7.70833 77.7389 7.99154 78.0449 8.19336C78.3509 8.39518 78.9694 8.60026 79.9004 8.80859C80.8314 9.01042 81.5605 9.25456 82.0879 9.54102C82.6217 9.82096 83.0156 10.1595 83.2695 10.5566C83.5299 10.9538 83.6602 11.4355 83.6602 12.002C83.6602 12.9525 83.2663 13.724 82.4785 14.3164C81.6908 14.9023 80.6589 15.1953 79.3828 15.1953C78.5169 15.1953 77.7454 15.0391 77.0684 14.7266C76.3913 14.4141 75.8639 13.9844 75.4863 13.4375C75.1087 12.8906 74.9199 12.3014 74.9199 11.6699H77.2246C77.2572 12.2298 77.4688 12.6628 77.8594 12.9688C78.25 13.2682 78.7676 13.418 79.4121 13.418C80.0371 13.418 80.5124 13.3008 80.8379 13.0664C81.1634 12.8255 81.3262 12.513 81.3262 12.1289Z" fill="url(#paint0_linear_449:676)"/>
<defs>
<linearGradient id="paint0_linear_449:676" x1="-1" y1="-3" x2="10.4811" y2="39.9295" gradientUnits="userSpaceOnUse">
<stop stop-color="#CE9FFC"/>
<stop offset="1" stop-color="#7367F0"/>
</linearGradient>
</defs>
</svg>
