<svg width="21" height="21" viewBox="0 0 21 21" fill="none" xmlns="http://www.w3.org/2000/svg">
<path d="M3.40541 4.65909C3.40541 2.08595 5.31122 0 7.66216 0C10.0131 0 11.9189 2.08595 11.9189 4.65909C11.9189 7.23224 10.0131 9.31818 7.66216 9.31818C5.31122 9.31818 3.40541 7.23224 3.40541 4.65909Z" fill="white"/>
<path d="M11.4641 0.474456C12.4461 1.54333 13.0541 3.02351 13.0541 4.65909C13.0541 6.29468 12.4461 7.77486 11.4641 8.84373C12.0295 9.14756 12.6655 9.31818 13.3378 9.31818C15.6888 9.31818 17.5946 7.23224 17.5946 4.65909C17.5946 2.08595 15.6888 0 13.3378 0C12.6655 0 12.0295 0.170618 11.4641 0.474456Z" fill="white"/>
<path d="M0 15.8409C0 13.2678 1.90582 11.1818 4.25676 11.1818H11.0676C13.4185 11.1818 15.3243 13.2678 15.3243 15.8409C15.3243 18.4141 13.4185 20.5 11.0676 20.5H4.25676C1.90582 20.5 0 18.4141 0 15.8409Z" fill="white"/>
<path d="M16.4595 15.8409C16.4595 17.1142 16.091 18.2934 15.4645 19.2576H16.7432C19.0942 19.2576 21 17.1716 21 14.5985C21 12.0253 19.0942 9.93939 16.7432 9.93939H11.0676C14.0454 9.93939 16.4595 12.5816 16.4595 15.8409Z" fill="white"/>
</svg>
