<svg width="19" height="16" viewBox="0 0 19 16" fill="none" xmlns="http://www.w3.org/2000/svg">
<path d="M12.5 2C12.5 3.1696 13.0737 4.20521 13.955 4.84077C13.071 5.70359 12.3355 6.38127 11.668 6.89053C10.6425 7.67296 9.86641 7.98679 9.0608 7.98679C8.25518 7.98679 7.47905 7.67296 6.45355 6.89053C5.41074 6.09489 4.20172 4.88812 2.52006 3.20646L1.5747 2.2611C2.09026 1.47367 2.81789 0.847386 3.6742 0.454832C4.66636 0 5.90089 0 8.36995 0H9.99413C11.332 0 12.3074 0 13.0782 0.0723611C12.7128 0.625156 12.5 1.28773 12.5 2Z" fill="#2D264B"/>
<path d="M17.6554 5.08456C17.1625 5.34962 16.5988 5.5 16 5.5C15.8183 5.5 15.6399 5.48616 15.4657 5.45948C14.3619 6.55079 13.4285 7.4341 12.5779 8.08306C11.419 8.96729 10.3263 9.48679 9.0608 9.48679C7.79535 9.48679 6.70261 8.96729 5.54368 8.08306C4.41142 7.21918 3.13225 5.93999 1.49998 4.30771L0.962313 3.77004C0.774323 4.53557 0.637019 5.52416 0.446005 6.89945C0.00983191 10.0399 -0.208255 11.6101 0.271274 12.8297C0.69225 13.9003 1.46954 14.793 2.47208 15.3573C3.61405 16 5.19934 16 8.36992 16H9.99413C13.1647 16 14.75 16 15.892 15.3573C16.8945 14.793 17.6718 13.9003 18.0928 12.8297C18.5723 11.6101 18.3542 10.0399 17.9181 6.89945C17.8212 6.20221 17.7382 5.60435 17.6554 5.08456Z" fill="#2D264B"/>
<path d="M18 2C18 3.10457 17.1046 4 16 4C14.8954 4 14 3.10457 14 2C14 0.89543 14.8954 0 16 0C17.1046 0 18 0.89543 18 2Z" fill="#2D264B"/>
</svg>
