<svg width="15" height="16" viewBox="0 0 15 16" fill="none" xmlns="http://www.w3.org/2000/svg">
<path d="M12.3846 8.59917V7.17241H11.3077V8.82759C11.3077 8.9739 11.3645 9.11421 11.4655 9.21766L12.9231 10.7112V11.5862H1.07692V10.7112L2.53454 9.21766C2.63553 9.11421 2.69228 8.9739 2.69231 8.82759V6.62069C2.69081 5.8454 2.88901 5.08344 3.26689 4.41176C3.64478 3.74008 4.18896 3.18247 4.84448 2.79526C5.5 2.40804 6.24364 2.20493 7.00029 2.20644C7.75694 2.20795 8.4998 2.41403 9.15385 2.80386V1.57076C8.64128 1.33822 8.09612 1.19001 7.53846 1.13159V0H6.46154V1.13103C5.134 1.26948 3.90372 1.90737 3.00858 2.92137C2.11345 3.93536 1.61705 5.25343 1.61538 6.62069V8.59917L0.157769 10.0927C0.0567811 10.1961 3.04971e-05 10.3364 0 10.4828V12.1379C0 12.2843 0.0567306 12.4246 0.157712 12.5281C0.258693 12.6315 0.395653 12.6897 0.538462 12.6897H4.30769V13.2414C4.30769 13.973 4.59135 14.6747 5.09625 15.192C5.60116 15.7094 6.28596 16 7 16C7.71404 16 8.39884 15.7094 8.90375 15.192C9.40866 14.6747 9.69231 13.973 9.69231 13.2414V12.6897H13.4615C13.6043 12.6897 13.7413 12.6315 13.8423 12.5281C13.9433 12.4246 14 12.2843 14 12.1379V10.4828C14 10.3364 13.9432 10.1961 13.8422 10.0927L12.3846 8.59917ZM8.61539 13.2414C8.61539 13.6804 8.44519 14.1014 8.14225 14.4118C7.83931 14.7222 7.42843 14.8966 7 14.8966C6.57157 14.8966 6.16069 14.7222 5.85775 14.4118C5.55481 14.1014 5.38462 13.6804 5.38462 13.2414V12.6897H8.61539V13.2414Z" fill="black"/>
<path d="M12.5 6C13.8807 6 15 5.10457 15 4C15 2.89543 13.8807 2 12.5 2C11.1193 2 10 2.89543 10 4C10 5.10457 11.1193 6 12.5 6Z" fill="black"/>
</svg>
