<svg width="22" height="22" viewBox="0 0 22 22" fill="none" xmlns="http://www.w3.org/2000/svg">
<path d="M14.25 8C14.25 9.79493 12.7949 11.25 11 11.25V12.75C13.6234 12.75 15.75 10.6234 15.75 8H14.25ZM11 11.25C9.20507 11.25 7.75 9.79493 7.75 8H6.25C6.25 10.6234 8.37665 12.75 11 12.75V11.25ZM7.75 8C7.75 6.20507 9.20507 4.75 11 4.75V3.25C8.37665 3.25 6.25 5.37665 6.25 8H7.75ZM11 4.75C12.7949 4.75 14.25 6.20507 14.25 8H15.75C15.75 5.37665 13.6234 3.25 11 3.25V4.75ZM8 15.75H14V14.25H8V15.75ZM1.75 11C1.75 5.89137 5.89137 1.75 11 1.75V0.25C5.06294 0.25 0.25 5.06294 0.25 11H1.75ZM11 1.75C16.1086 1.75 20.25 5.89137 20.25 11H21.75C21.75 5.06294 16.9371 0.25 11 0.25V1.75ZM20.25 11C20.25 13.6233 19.159 15.9905 17.4039 17.6748L18.4425 18.7571C20.4801 16.8016 21.75 14.0485 21.75 11H20.25ZM17.4039 17.6748C15.7412 19.2705 13.4858 20.25 11 20.25V21.75C13.8882 21.75 16.5117 20.61 18.4425 18.7571L17.4039 17.6748ZM14 15.75C15.576 15.75 16.8915 16.8726 17.1876 18.3621L18.6588 18.0697C18.226 15.8918 16.3055 14.25 14 14.25V15.75ZM11 20.25C8.51425 20.25 6.25884 19.2705 4.59612 17.6748L3.55751 18.7571C5.48833 20.61 8.11182 21.75 11 21.75V20.25ZM4.59612 17.6748C2.84103 15.9905 1.75 13.6233 1.75 11H0.25C0.25 14.0485 1.51989 16.8016 3.55751 18.7571L4.59612 17.6748ZM8 14.25C5.69445 14.25 3.77403 15.8918 3.3412 18.0697L4.81243 18.3621C5.10846 16.8726 6.42396 15.75 8 15.75V14.25Z" fill="#2D264B"/>
<path d="M13.9994 15H7.99936C6.05857 15 4.44061 16.3822 4.07617 18.2159C5.87294 19.9403 8.31239 21 10.9994 21C13.6863 21 16.1258 19.9403 17.9225 18.2159C17.5581 16.3822 15.9402 15 13.9994 15Z" fill="white"/>
<path d="M17.9225 18.2159L18.4419 18.7571L18.7382 18.4726L18.6582 18.0697L17.9225 18.2159ZM4.07617 18.2159L3.34056 18.0697L3.26049 18.4726L3.55686 18.7571L4.07617 18.2159ZM7.99936 15.75H13.9994V14.25H7.99936V15.75ZM17.4032 17.6748C15.7405 19.2705 13.4851 20.25 10.9994 20.25V21.75C13.8875 21.75 16.511 20.61 18.4419 18.7571L17.4032 17.6748ZM13.9994 15.75C15.5754 15.75 16.8909 16.8726 17.1869 18.3621L18.6582 18.0697C18.2253 15.8918 16.3049 14.25 13.9994 14.25V15.75ZM10.9994 20.25C8.51361 20.25 6.2582 19.2705 4.59548 17.6748L3.55686 18.7571C5.48768 20.61 8.11118 21.75 10.9994 21.75V20.25ZM7.99936 14.25C5.69381 14.25 3.77339 15.8918 3.34056 18.0697L4.81179 18.3621C5.10782 16.8726 6.42332 15.75 7.99936 15.75V14.25Z" fill="#2D264B"/>
<path d="M15 8C15 10.2091 13.2091 12 11 12C8.79086 12 7 10.2091 7 8C7 5.79086 8.79086 4 11 4C13.2091 4 15 5.79086 15 8Z" fill="white"/>
<path d="M14.25 8C14.25 9.79493 12.7949 11.25 11 11.25V12.75C13.6234 12.75 15.75 10.6234 15.75 8H14.25ZM11 11.25C9.20507 11.25 7.75 9.79493 7.75 8H6.25C6.25 10.6234 8.37665 12.75 11 12.75V11.25ZM7.75 8C7.75 6.20507 9.20507 4.75 11 4.75V3.25C8.37665 3.25 6.25 5.37665 6.25 8H7.75ZM11 4.75C12.7949 4.75 14.25 6.20507 14.25 8H15.75C15.75 5.37665 13.6234 3.25 11 3.25V4.75Z" fill="#2D264B"/>
</svg>
