<svg width="58" height="17" viewBox="0 0 58 17" fill="none" xmlns="http://www.w3.org/2000/svg">
<path d="M3.23633 10.7168V16H0.765625V1.78125H6.20508C7.79362 1.78125 9.05339 2.19466 9.98438 3.02148C10.9219 3.84831 11.3906 4.94206 11.3906 6.30273C11.3906 7.69596 10.9316 8.77995 10.0137 9.55469C9.10221 10.3294 7.82292 10.7168 6.17578 10.7168H3.23633ZM3.23633 8.73438H6.20508C7.08398 8.73438 7.75456 8.5293 8.2168 8.11914C8.67904 7.70247 8.91016 7.10352 8.91016 6.32227C8.91016 5.55404 8.67578 4.94206 8.20703 4.48633C7.73828 4.02409 7.09375 3.78646 6.27344 3.77344H3.23633V8.73438ZM18.8613 7.60156C18.5488 7.54948 18.2266 7.52344 17.8945 7.52344C16.8073 7.52344 16.0749 7.9401 15.6973 8.77344V16H13.3242V5.43359H15.5898L15.6484 6.61523C16.2214 5.69727 17.0156 5.23828 18.0312 5.23828C18.3698 5.23828 18.6497 5.28385 18.8711 5.375L18.8613 7.60156ZM19.5645 10.6191C19.5645 9.58398 19.7695 8.65299 20.1797 7.82617C20.5898 6.99284 21.166 6.35482 21.9082 5.91211C22.6504 5.46289 23.5033 5.23828 24.4668 5.23828C25.8926 5.23828 27.0482 5.69727 27.9336 6.61523C28.8255 7.5332 29.3073 8.75065 29.3789 10.2676L29.3887 10.8242C29.3887 11.8659 29.1868 12.7969 28.7832 13.6172C28.3861 14.4375 27.8132 15.0723 27.0645 15.5215C26.3223 15.9707 25.4629 16.1953 24.4863 16.1953C22.9954 16.1953 21.8008 15.7005 20.9023 14.7109C20.0104 13.7148 19.5645 12.39 19.5645 10.7363V10.6191ZM21.9375 10.8242C21.9375 11.9115 22.1621 12.7643 22.6113 13.3828C23.0605 13.9948 23.6855 14.3008 24.4863 14.3008C25.2871 14.3008 25.9089 13.9883 26.3516 13.3633C26.8008 12.7383 27.0254 11.8236 27.0254 10.6191C27.0254 9.55143 26.7943 8.70508 26.332 8.08008C25.8763 7.45508 25.2546 7.14258 24.4668 7.14258C23.6921 7.14258 23.0768 7.45182 22.6211 8.07031C22.1654 8.68229 21.9375 9.60026 21.9375 10.8242ZM32.0254 16V7.19141H30.4141V5.43359H32.0254V4.71094C32.0319 3.88411 32.2077 3.17448 32.5527 2.58203C32.8978 1.98958 33.3861 1.54362 34.0176 1.24414C34.6491 0.944661 35.4076 0.794922 36.293 0.794922C36.8138 0.794922 37.3118 0.85026 37.7871 0.960938C38.2689 1.07161 38.7669 1.21159 39.2812 1.38086L38.9199 3.34375C38.0215 3.03125 37.2012 2.875 36.459 2.875C35.7363 2.875 35.2122 3.03451 34.8867 3.35352C34.5612 3.66602 34.3984 4.13802 34.3984 4.76953V5.43359H36.4785V7.19141H34.3984V16H32.0254ZM40.4043 16H38.0312V5.43359H40.4043V16ZM45.5605 16H43.1875V1H45.5605V16ZM52.8066 16.1953C51.3027 16.1953 50.082 15.7233 49.1445 14.7793C48.2135 13.8288 47.748 12.5658 47.748 10.9902V10.6973C47.748 9.64258 47.9499 8.70182 48.3535 7.875C48.7637 7.04167 49.3366 6.39388 50.0723 5.93164C50.8079 5.4694 51.6283 5.23828 52.5332 5.23828C53.972 5.23828 55.082 5.69727 55.8633 6.61523C56.651 7.5332 57.0449 8.83203 57.0449 10.5117V11.4688H50.1406C50.2122 12.3411 50.502 13.0312 51.0098 13.5391C51.5241 14.0469 52.1686 14.3008 52.9434 14.3008C54.0306 14.3008 54.916 13.8613 55.5996 12.9824L56.8789 14.2031C56.4557 14.8346 55.8893 15.3262 55.1797 15.6777C54.4766 16.0228 53.6855 16.1953 52.8066 16.1953ZM52.5234 7.14258C51.8724 7.14258 51.3451 7.37044 50.9414 7.82617C50.5443 8.2819 50.2904 8.91667 50.1797 9.73047H54.7012V9.55469C54.6491 8.76042 54.4375 8.16146 54.0664 7.75781C53.6953 7.34766 53.181 7.14258 52.5234 7.14258Z" fill="url(#paint0_linear_452:847)"/>
<defs>
<linearGradient id="paint0_linear_452:847" x1="-1" y1="-2" x2="14.5666" y2="37.9317" gradientUnits="userSpaceOnUse">
<stop stop-color="#CE9FFC"/>
<stop offset="1" stop-color="#7367F0"/>
</linearGradient>
</defs>
</svg>
