<svg width="16" height="16" viewBox="0 0 16 16" fill="none" xmlns="http://www.w3.org/2000/svg">
<g opacity="0.4">
<path d="M12.8637 11.803C12.5708 11.5102 12.0959 11.5101 11.803 11.803C11.5101 12.0959 11.5101 12.5708 11.803 12.8637L12.8637 11.803ZM14.4696 15.5303C14.7625 15.8232 15.2374 15.8232 15.5303 15.5303C15.8232 15.2374 15.8232 14.7626 15.5303 14.4697L14.4696 15.5303ZM5.92918 3.7818C6.33829 3.717 6.61742 3.33282 6.55262 2.92371C6.48782 2.51459 6.10364 2.23547 5.69453 2.30027L5.92918 3.7818ZM2.30025 5.69455C2.23545 6.10366 2.51457 6.48784 2.92369 6.55264C3.3328 6.61744 3.71698 6.33831 3.78178 5.9292L2.30025 5.69455ZM11.803 12.8637L14.4696 15.5303L15.5303 14.4697L12.8637 11.803L11.803 12.8637ZM6.99999 12.25C4.1005 12.25 1.75 9.89948 1.75 6.99999H0.25C0.25 10.7279 3.27207 13.75 6.99999 13.75V12.25ZM12.25 6.99999C12.25 9.89948 9.89948 12.25 6.99999 12.25V13.75C10.7279 13.75 13.75 10.7279 13.75 6.99999H12.25ZM6.99999 1.75C9.89948 1.75 12.25 4.1005 12.25 6.99999H13.75C13.75 3.27207 10.7279 0.25 6.99999 0.25V1.75ZM6.99999 0.25C3.27207 0.25 0.25 3.27207 0.25 6.99999H1.75C1.75 4.1005 4.1005 1.75 6.99999 1.75V0.25ZM5.69453 2.30027C3.9473 2.577 2.57698 3.94732 2.30025 5.69455L3.78178 5.9292C3.95685 4.82381 4.82379 3.95687 5.92918 3.7818L5.69453 2.30027Z" fill="#2D264B"/>
</g>
</svg>
