<svg width="127" height="20" viewBox="0 0 127 20" fill="none" xmlns="http://www.w3.org/2000/svg">
<path d="M6.56641 11.9043L10.1797 0.78125H12.8945L7.77734 15H5.38477L0.287109 0.78125H2.99219L6.56641 11.9043ZM16.8008 15H14.4277V4.43359H16.8008V15ZM14.2812 1.68945C14.2812 1.32487 14.3952 1.02214 14.623 0.78125C14.8574 0.540365 15.1895 0.419922 15.6191 0.419922C16.0488 0.419922 16.3809 0.540365 16.6152 0.78125C16.8496 1.02214 16.9668 1.32487 16.9668 1.68945C16.9668 2.04753 16.8496 2.34701 16.6152 2.58789C16.3809 2.82227 16.0488 2.93945 15.6191 2.93945C15.1895 2.93945 14.8574 2.82227 14.623 2.58789C14.3952 2.34701 14.2812 2.04753 14.2812 1.68945ZM24.0469 15.1953C22.543 15.1953 21.3223 14.7233 20.3848 13.7793C19.4538 12.8288 18.9883 11.5658 18.9883 9.99023V9.69727C18.9883 8.64258 19.1901 7.70182 19.5938 6.875C20.0039 6.04167 20.5768 5.39388 21.3125 4.93164C22.0482 4.4694 22.8685 4.23828 23.7734 4.23828C25.2122 4.23828 26.3223 4.69727 27.1035 5.61523C27.8913 6.5332 28.2852 7.83203 28.2852 9.51172V10.4688H21.3809C21.4525 11.3411 21.7422 12.0312 22.25 12.5391C22.7643 13.0469 23.4089 13.3008 24.1836 13.3008C25.2708 13.3008 26.1562 12.8613 26.8398 11.9824L28.1191 13.2031C27.696 13.8346 27.1296 14.3262 26.4199 14.6777C25.7168 15.0228 24.9258 15.1953 24.0469 15.1953ZM23.7637 6.14258C23.1126 6.14258 22.5853 6.37044 22.1816 6.82617C21.7845 7.2819 21.5306 7.91667 21.4199 8.73047H25.9414V8.55469C25.8893 7.76042 25.6777 7.16146 25.3066 6.75781C24.9355 6.34766 24.4212 6.14258 23.7637 6.14258ZM39.418 11.7285L41.0977 4.43359H43.4121L40.5312 15H38.5781L36.3125 7.74414L34.0859 15H32.1328L29.2422 4.43359H31.5566L33.2656 11.6504L35.4336 4.43359H37.2207L39.418 11.7285ZM55.5117 6.60156C55.1992 6.54948 54.877 6.52344 54.5449 6.52344C53.4577 6.52344 52.7253 6.9401 52.3477 7.77344V15H49.9746V4.43359H52.2402L52.2988 5.61523C52.8717 4.69727 53.666 4.23828 54.6816 4.23828C55.0202 4.23828 55.3001 4.28385 55.5215 4.375L55.5117 6.60156ZM61.4688 15.1953C59.9648 15.1953 58.7441 14.7233 57.8066 13.7793C56.8757 12.8288 56.4102 11.5658 56.4102 9.99023V9.69727C56.4102 8.64258 56.612 7.70182 57.0156 6.875C57.4258 6.04167 57.9987 5.39388 58.7344 4.93164C59.4701 4.4694 60.2904 4.23828 61.1953 4.23828C62.6341 4.23828 63.7441 4.69727 64.5254 5.61523C65.3132 6.5332 65.707 7.83203 65.707 9.51172V10.4688H58.8027C58.8743 11.3411 59.1641 12.0312 59.6719 12.5391C60.1862 13.0469 60.8307 13.3008 61.6055 13.3008C62.6927 13.3008 63.5781 12.8613 64.2617 11.9824L65.541 13.2031C65.1178 13.8346 64.5514 14.3262 63.8418 14.6777C63.1387 15.0228 62.3477 15.1953 61.4688 15.1953ZM61.1855 6.14258C60.5345 6.14258 60.0072 6.37044 59.6035 6.82617C59.2064 7.2819 58.9525 7.91667 58.8418 8.73047H63.3633V8.55469C63.3112 7.76042 63.0996 7.16146 62.7285 6.75781C62.3574 6.34766 61.8431 6.14258 61.1855 6.14258ZM67.1133 9.62891C67.1133 7.97526 67.4909 6.66341 68.2461 5.69336C69.0013 4.72331 70.0234 4.23828 71.3125 4.23828C72.4909 4.23828 73.4251 4.65169 74.1152 5.47852L74.252 4.43359H76.3613V19.0625H73.9883V14.1016C73.2982 14.8307 72.3997 15.1953 71.293 15.1953C70.0299 15.1953 69.0176 14.7038 68.2559 13.7207C67.4941 12.7311 67.1133 11.3672 67.1133 9.62891ZM69.4863 9.83398C69.4863 10.9147 69.6979 11.7643 70.1211 12.3828C70.5508 12.9948 71.1432 13.3008 71.8984 13.3008C72.8359 13.3008 73.5326 12.9004 73.9883 12.0996V7.29492C73.5326 6.52669 72.8424 6.14258 71.918 6.14258C71.1628 6.14258 70.5671 6.44531 70.1309 7.05078C69.7012 7.65625 69.4863 8.58398 69.4863 9.83398ZM85.3262 13.9648C84.6296 14.7852 83.64 15.1953 82.3574 15.1953C81.2116 15.1953 80.3424 14.86 79.75 14.1895C79.1641 13.5189 78.8711 12.5488 78.8711 11.2793V4.43359H81.2441V11.25C81.2441 12.5911 81.8008 13.2617 82.9141 13.2617C84.0664 13.2617 84.8444 12.8483 85.248 12.0215V4.43359H87.6211V15H85.3848L85.3262 13.9648ZM94.6914 15.1953C93.1875 15.1953 91.9668 14.7233 91.0293 13.7793C90.0983 12.8288 89.6328 11.5658 89.6328 9.99023V9.69727C89.6328 8.64258 89.8346 7.70182 90.2383 6.875C90.6484 6.04167 91.2214 5.39388 91.957 4.93164C92.6927 4.4694 93.513 4.23828 94.418 4.23828C95.8568 4.23828 96.9668 4.69727 97.748 5.61523C98.5358 6.5332 98.9297 7.83203 98.9297 9.51172V10.4688H92.0254C92.097 11.3411 92.3867 12.0312 92.8945 12.5391C93.4089 13.0469 94.0534 13.3008 94.8281 13.3008C95.9154 13.3008 96.8008 12.8613 97.4844 11.9824L98.7637 13.2031C98.3405 13.8346 97.7741 14.3262 97.0645 14.6777C96.3613 15.0228 95.5703 15.1953 94.6914 15.1953ZM94.4082 6.14258C93.7572 6.14258 93.2298 6.37044 92.8262 6.82617C92.429 7.2819 92.1751 7.91667 92.0645 8.73047H96.5859V8.55469C96.5339 7.76042 96.3223 7.16146 95.9512 6.75781C95.5801 6.34766 95.0658 6.14258 94.4082 6.14258ZM106.703 12.1289C106.703 11.7057 106.527 11.3835 106.176 11.1621C105.831 10.9408 105.255 10.7454 104.447 10.5762C103.64 10.4069 102.966 10.1921 102.426 9.93164C101.241 9.35872 100.648 8.52865 100.648 7.44141C100.648 6.52995 101.033 5.76823 101.801 5.15625C102.569 4.54427 103.546 4.23828 104.73 4.23828C105.993 4.23828 107.012 4.55078 107.787 5.17578C108.568 5.80078 108.959 6.61133 108.959 7.60742H106.586C106.586 7.15169 106.417 6.77409 106.078 6.47461C105.74 6.16862 105.29 6.01562 104.73 6.01562C104.21 6.01562 103.783 6.13607 103.451 6.37695C103.126 6.61784 102.963 6.9401 102.963 7.34375C102.963 7.70833 103.116 7.99154 103.422 8.19336C103.728 8.39518 104.346 8.60026 105.277 8.80859C106.208 9.01042 106.938 9.25456 107.465 9.54102C107.999 9.82096 108.393 10.1595 108.646 10.5566C108.907 10.9538 109.037 11.4355 109.037 12.002C109.037 12.9525 108.643 13.724 107.855 14.3164C107.068 14.9023 106.036 15.1953 104.76 15.1953C103.894 15.1953 103.122 15.0391 102.445 14.7266C101.768 14.4141 101.241 13.9844 100.863 13.4375C100.486 12.8906 100.297 12.3014 100.297 11.6699H102.602C102.634 12.2298 102.846 12.6628 103.236 12.9688C103.627 13.2682 104.145 13.418 104.789 13.418C105.414 13.418 105.889 13.3008 106.215 13.0664C106.54 12.8255 106.703 12.513 106.703 12.1289ZM114.086 1.86523V4.43359H115.951V6.19141H114.086V12.0898C114.086 12.4935 114.164 12.7865 114.32 12.9688C114.483 13.1445 114.77 13.2324 115.18 13.2324C115.453 13.2324 115.73 13.1999 116.01 13.1348V14.9707C115.469 15.1204 114.949 15.1953 114.447 15.1953C112.624 15.1953 111.713 14.1895 111.713 12.1777V6.19141H109.975V4.43359H111.713V1.86523H114.086ZM123.695 12.1289C123.695 11.7057 123.52 11.3835 123.168 11.1621C122.823 10.9408 122.247 10.7454 121.439 10.5762C120.632 10.4069 119.958 10.1921 119.418 9.93164C118.233 9.35872 117.641 8.52865 117.641 7.44141C117.641 6.52995 118.025 5.76823 118.793 5.15625C119.561 4.54427 120.538 4.23828 121.723 4.23828C122.986 4.23828 124.005 4.55078 124.779 5.17578C125.561 5.80078 125.951 6.61133 125.951 7.60742H123.578C123.578 7.15169 123.409 6.77409 123.07 6.47461C122.732 6.16862 122.283 6.01562 121.723 6.01562C121.202 6.01562 120.775 6.13607 120.443 6.37695C120.118 6.61784 119.955 6.9401 119.955 7.34375C119.955 7.70833 120.108 7.99154 120.414 8.19336C120.72 8.39518 121.339 8.60026 122.27 8.80859C123.201 9.01042 123.93 9.25456 124.457 9.54102C124.991 9.82096 125.385 10.1595 125.639 10.5566C125.899 10.9538 126.029 11.4355 126.029 12.002C126.029 12.9525 125.635 13.724 124.848 14.3164C124.06 14.9023 123.028 15.1953 121.752 15.1953C120.886 15.1953 120.115 15.0391 119.438 14.7266C118.76 14.4141 118.233 13.9844 117.855 13.4375C117.478 12.8906 117.289 12.3014 117.289 11.6699H119.594C119.626 12.2298 119.838 12.6628 120.229 12.9688C120.619 13.2682 121.137 13.418 121.781 13.418C122.406 13.418 122.882 13.3008 123.207 13.0664C123.533 12.8255 123.695 12.513 123.695 12.1289Z" fill="url(#paint0_linear_434:154)"/>
<defs>
<linearGradient id="paint0_linear_434:154" x1="0" y1="-3" x2="8.06615" y2="41.5392" gradientUnits="userSpaceOnUse">
<stop stop-color="#CE9FFC"/>
<stop offset="1" stop-color="#7367F0"/>
</linearGradient>
</defs>
</svg>
