<svg width="68" height="16" viewBox="0 0 68 16" fill="none" xmlns="http://www.w3.org/2000/svg">
<path d="M6.63867 11.9043L10.252 0.78125H12.9668L7.84961 15H5.45703L0.359375 0.78125H3.06445L6.63867 11.9043ZM16.873 15H14.5V4.43359H16.873V15ZM14.3535 1.68945C14.3535 1.32487 14.4674 1.02214 14.6953 0.78125C14.9297 0.540365 15.2617 0.419922 15.6914 0.419922C16.1211 0.419922 16.4531 0.540365 16.6875 0.78125C16.9219 1.02214 17.0391 1.32487 17.0391 1.68945C17.0391 2.04753 16.9219 2.34701 16.6875 2.58789C16.4531 2.82227 16.1211 2.93945 15.6914 2.93945C15.2617 2.93945 14.9297 2.82227 14.6953 2.58789C14.4674 2.34701 14.3535 2.04753 14.3535 1.68945ZM25.3887 12.1289C25.3887 11.7057 25.2129 11.3835 24.8613 11.1621C24.5163 10.9408 23.9401 10.7454 23.1328 10.5762C22.3255 10.4069 21.6517 10.1921 21.1113 9.93164C19.9264 9.35872 19.334 8.52865 19.334 7.44141C19.334 6.52995 19.7181 5.76823 20.4863 5.15625C21.2546 4.54427 22.2311 4.23828 23.416 4.23828C24.679 4.23828 25.6979 4.55078 26.4727 5.17578C27.2539 5.80078 27.6445 6.61133 27.6445 7.60742H25.2715C25.2715 7.15169 25.1022 6.77409 24.7637 6.47461C24.4251 6.16862 23.9759 6.01562 23.416 6.01562C22.8952 6.01562 22.4688 6.13607 22.1367 6.37695C21.8112 6.61784 21.6484 6.9401 21.6484 7.34375C21.6484 7.70833 21.8014 7.99154 22.1074 8.19336C22.4134 8.39518 23.0319 8.60026 23.9629 8.80859C24.8939 9.01042 25.623 9.25456 26.1504 9.54102C26.6842 9.82096 27.0781 10.1595 27.332 10.5566C27.5924 10.9538 27.7227 11.4355 27.7227 12.002C27.7227 12.9525 27.3288 13.724 26.541 14.3164C25.7533 14.9023 24.7214 15.1953 23.4453 15.1953C22.5794 15.1953 21.8079 15.0391 21.1309 14.7266C20.4538 14.4141 19.9264 13.9844 19.5488 13.4375C19.1712 12.8906 18.9824 12.3014 18.9824 11.6699H21.2871C21.3197 12.2298 21.5312 12.6628 21.9219 12.9688C22.3125 13.2682 22.8301 13.418 23.4746 13.418C24.0996 13.418 24.5749 13.3008 24.9004 13.0664C25.2259 12.8255 25.3887 12.513 25.3887 12.1289ZM32.3223 15H29.9492V4.43359H32.3223V15ZM29.8027 1.68945C29.8027 1.32487 29.9167 1.02214 30.1445 0.78125C30.3789 0.540365 30.7109 0.419922 31.1406 0.419922C31.5703 0.419922 31.9023 0.540365 32.1367 0.78125C32.3711 1.02214 32.4883 1.32487 32.4883 1.68945C32.4883 2.04753 32.3711 2.34701 32.1367 2.58789C31.9023 2.82227 31.5703 2.93945 31.1406 2.93945C30.7109 2.93945 30.3789 2.82227 30.1445 2.58789C29.9167 2.34701 29.8027 2.04753 29.8027 1.68945ZM37.8887 1.86523V4.43359H39.7539V6.19141H37.8887V12.0898C37.8887 12.4935 37.9668 12.7865 38.123 12.9688C38.2858 13.1445 38.5723 13.2324 38.9824 13.2324C39.2559 13.2324 39.5326 13.1999 39.8125 13.1348V14.9707C39.2721 15.1204 38.7513 15.1953 38.25 15.1953C36.4271 15.1953 35.5156 14.1895 35.5156 12.1777V6.19141H33.7773V4.43359H35.5156V1.86523H37.8887ZM40.8379 9.61914C40.8379 8.58398 41.043 7.65299 41.4531 6.82617C41.8633 5.99284 42.4395 5.35482 43.1816 4.91211C43.9238 4.46289 44.7767 4.23828 45.7402 4.23828C47.166 4.23828 48.3216 4.69727 49.207 5.61523C50.099 6.5332 50.5807 7.75065 50.6523 9.26758L50.6621 9.82422C50.6621 10.8659 50.4603 11.7969 50.0566 12.6172C49.6595 13.4375 49.0866 14.0723 48.3379 14.5215C47.5957 14.9707 46.7363 15.1953 45.7598 15.1953C44.2689 15.1953 43.0742 14.7005 42.1758 13.7109C41.2839 12.7148 40.8379 11.39 40.8379 9.73633V9.61914ZM43.2109 9.82422C43.2109 10.9115 43.4355 11.7643 43.8848 12.3828C44.334 12.9948 44.959 13.3008 45.7598 13.3008C46.5605 13.3008 47.1823 12.9883 47.625 12.3633C48.0742 11.7383 48.2988 10.8236 48.2988 9.61914C48.2988 8.55143 48.0677 7.70508 47.6055 7.08008C47.1497 6.45508 46.528 6.14258 45.7402 6.14258C44.9655 6.14258 44.3503 6.45182 43.8945 7.07031C43.4388 7.68229 43.2109 8.60026 43.2109 9.82422ZM58.2012 6.60156C57.8887 6.54948 57.5664 6.52344 57.2344 6.52344C56.1471 6.52344 55.4147 6.9401 55.0371 7.77344V15H52.6641V4.43359H54.9297L54.9883 5.61523C55.5612 4.69727 56.3555 4.23828 57.3711 4.23828C57.7096 4.23828 57.9896 4.28385 58.2109 4.375L58.2012 6.60156ZM65.623 12.1289C65.623 11.7057 65.4473 11.3835 65.0957 11.1621C64.7507 10.9408 64.1745 10.7454 63.3672 10.5762C62.5599 10.4069 61.8861 10.1921 61.3457 9.93164C60.1608 9.35872 59.5684 8.52865 59.5684 7.44141C59.5684 6.52995 59.9525 5.76823 60.7207 5.15625C61.4889 4.54427 62.4655 4.23828 63.6504 4.23828C64.9134 4.23828 65.9323 4.55078 66.707 5.17578C67.4883 5.80078 67.8789 6.61133 67.8789 7.60742H65.5059C65.5059 7.15169 65.3366 6.77409 64.998 6.47461C64.6595 6.16862 64.2103 6.01562 63.6504 6.01562C63.1296 6.01562 62.7031 6.13607 62.3711 6.37695C62.0456 6.61784 61.8828 6.9401 61.8828 7.34375C61.8828 7.70833 62.0358 7.99154 62.3418 8.19336C62.6478 8.39518 63.2663 8.60026 64.1973 8.80859C65.1283 9.01042 65.8574 9.25456 66.3848 9.54102C66.9186 9.82096 67.3125 10.1595 67.5664 10.5566C67.8268 10.9538 67.957 11.4355 67.957 12.002C67.957 12.9525 67.5632 13.724 66.7754 14.3164C65.9876 14.9023 64.9557 15.1953 63.6797 15.1953C62.8138 15.1953 62.0423 15.0391 61.3652 14.7266C60.6882 14.4141 60.1608 13.9844 59.7832 13.4375C59.4056 12.8906 59.2168 12.3014 59.2168 11.6699H61.5215C61.554 12.2298 61.7656 12.6628 62.1562 12.9688C62.5469 13.2682 63.0645 13.418 63.709 13.418C64.334 13.418 64.8092 13.3008 65.1348 13.0664C65.4603 12.8255 65.623 12.513 65.623 12.1289Z" fill="url(#paint0_linear_441:114)"/>
<defs>
<linearGradient id="paint0_linear_441:114" x1="0" y1="-3" x2="13.8" y2="38.4" gradientUnits="userSpaceOnUse">
<stop stop-color="#CE9FFC"/>
<stop offset="1" stop-color="#7367F0"/>
</linearGradient>
</defs>
</svg>
