<svg width="90" height="16" viewBox="0 0 90 16" fill="none" xmlns="http://www.w3.org/2000/svg">
<path d="M9.85547 11.6895H4.34766L3.19531 15H0.626953L5.99805 0.78125H8.21484L13.5957 15H11.0176L9.85547 11.6895ZM5.04102 9.69727H9.16211L7.10156 3.79883L5.04102 9.69727ZM16.75 4.43359L16.8184 5.53711C17.5605 4.67122 18.5762 4.23828 19.8652 4.23828C21.278 4.23828 22.2448 4.77865 22.7656 5.85938C23.5339 4.77865 24.6146 4.23828 26.0078 4.23828C27.1732 4.23828 28.0391 4.56055 28.6055 5.20508C29.1784 5.84961 29.4714 6.80013 29.4844 8.05664V15H27.1113V8.125C27.1113 7.45443 26.9648 6.96289 26.6719 6.65039C26.3789 6.33789 25.8939 6.18164 25.2168 6.18164C24.6764 6.18164 24.2337 6.32812 23.8887 6.62109C23.5501 6.90755 23.3125 7.28516 23.1758 7.75391L23.1855 15H20.8125V8.04688C20.7799 6.80339 20.1452 6.18164 18.9082 6.18164C17.9577 6.18164 17.2839 6.56901 16.8867 7.34375V15H14.5137V4.43359H16.75ZM36.5742 15.1953C35.0703 15.1953 33.8496 14.7233 32.9121 13.7793C31.9811 12.8288 31.5156 11.5658 31.5156 9.99023V9.69727C31.5156 8.64258 31.7174 7.70182 32.1211 6.875C32.5312 6.04167 33.1042 5.39388 33.8398 4.93164C34.5755 4.4694 35.3958 4.23828 36.3008 4.23828C37.7396 4.23828 38.8496 4.69727 39.6309 5.61523C40.4186 6.5332 40.8125 7.83203 40.8125 9.51172V10.4688H33.9082C33.9798 11.3411 34.2695 12.0312 34.7773 12.5391C35.2917 13.0469 35.9362 13.3008 36.7109 13.3008C37.7982 13.3008 38.6836 12.8613 39.3672 11.9824L40.6465 13.2031C40.2233 13.8346 39.6569 14.3262 38.9473 14.6777C38.2441 15.0228 37.4531 15.1953 36.5742 15.1953ZM36.291 6.14258C35.64 6.14258 35.1126 6.37044 34.709 6.82617C34.3118 7.2819 34.0579 7.91667 33.9473 8.73047H38.4688V8.55469C38.4167 7.76042 38.2051 7.16146 37.834 6.75781C37.4629 6.34766 36.9486 6.14258 36.291 6.14258ZM44.8652 4.43359L44.9336 5.6543C45.7148 4.71029 46.7402 4.23828 48.0098 4.23828C50.2103 4.23828 51.3301 5.49805 51.3691 8.01758V15H48.9961V8.1543C48.9961 7.48372 48.8496 6.98893 48.5566 6.66992C48.2702 6.3444 47.7982 6.18164 47.1406 6.18164C46.1836 6.18164 45.4707 6.61458 45.002 7.48047V15H42.6289V4.43359H44.8652ZM56.3203 15H53.9473V4.43359H56.3203V15ZM53.8008 1.68945C53.8008 1.32487 53.9147 1.02214 54.1426 0.78125C54.377 0.540365 54.709 0.419922 55.1387 0.419922C55.5684 0.419922 55.9004 0.540365 56.1348 0.78125C56.3691 1.02214 56.4863 1.32487 56.4863 1.68945C56.4863 2.04753 56.3691 2.34701 56.1348 2.58789C55.9004 2.82227 55.5684 2.93945 55.1387 2.93945C54.709 2.93945 54.377 2.82227 54.1426 2.58789C53.9147 2.34701 53.8008 2.04753 53.8008 1.68945ZM61.8867 1.86523V4.43359H63.752V6.19141H61.8867V12.0898C61.8867 12.4935 61.9648 12.7865 62.1211 12.9688C62.2839 13.1445 62.5703 13.2324 62.9805 13.2324C63.2539 13.2324 63.5306 13.1999 63.8105 13.1348V14.9707C63.2702 15.1204 62.7493 15.1953 62.248 15.1953C60.4251 15.1953 59.5137 14.1895 59.5137 12.1777V6.19141H57.7754V4.43359H59.5137V1.86523H61.8867ZM68.0977 15H65.7246V4.43359H68.0977V15ZM65.5781 1.68945C65.5781 1.32487 65.6921 1.02214 65.9199 0.78125C66.1543 0.540365 66.4863 0.419922 66.916 0.419922C67.3457 0.419922 67.6777 0.540365 67.9121 0.78125C68.1465 1.02214 68.2637 1.32487 68.2637 1.68945C68.2637 2.04753 68.1465 2.34701 67.9121 2.58789C67.6777 2.82227 67.3457 2.93945 66.916 2.93945C66.4863 2.93945 66.1543 2.82227 65.9199 2.58789C65.6921 2.34701 65.5781 2.04753 65.5781 1.68945ZM75.3438 15.1953C73.8398 15.1953 72.6191 14.7233 71.6816 13.7793C70.7507 12.8288 70.2852 11.5658 70.2852 9.99023V9.69727C70.2852 8.64258 70.487 7.70182 70.8906 6.875C71.3008 6.04167 71.8737 5.39388 72.6094 4.93164C73.3451 4.4694 74.1654 4.23828 75.0703 4.23828C76.5091 4.23828 77.6191 4.69727 78.4004 5.61523C79.1882 6.5332 79.582 7.83203 79.582 9.51172V10.4688H72.6777C72.7493 11.3411 73.0391 12.0312 73.5469 12.5391C74.0612 13.0469 74.7057 13.3008 75.4805 13.3008C76.5677 13.3008 77.4531 12.8613 78.1367 11.9824L79.416 13.2031C78.9928 13.8346 78.4264 14.3262 77.7168 14.6777C77.0137 15.0228 76.2227 15.1953 75.3438 15.1953ZM75.0605 6.14258C74.4095 6.14258 73.8822 6.37044 73.4785 6.82617C73.0814 7.2819 72.8275 7.91667 72.7168 8.73047H77.2383V8.55469C77.1862 7.76042 76.9746 7.16146 76.6035 6.75781C76.2324 6.34766 75.7181 6.14258 75.0605 6.14258ZM87.3555 12.1289C87.3555 11.7057 87.1797 11.3835 86.8281 11.1621C86.4831 10.9408 85.9069 10.7454 85.0996 10.5762C84.2923 10.4069 83.6185 10.1921 83.0781 9.93164C81.8932 9.35872 81.3008 8.52865 81.3008 7.44141C81.3008 6.52995 81.6849 5.76823 82.4531 5.15625C83.2214 4.54427 84.1979 4.23828 85.3828 4.23828C86.6458 4.23828 87.6647 4.55078 88.4395 5.17578C89.2207 5.80078 89.6113 6.61133 89.6113 7.60742H87.2383C87.2383 7.15169 87.069 6.77409 86.7305 6.47461C86.3919 6.16862 85.9427 6.01562 85.3828 6.01562C84.862 6.01562 84.4355 6.13607 84.1035 6.37695C83.778 6.61784 83.6152 6.9401 83.6152 7.34375C83.6152 7.70833 83.7682 7.99154 84.0742 8.19336C84.3802 8.39518 84.9987 8.60026 85.9297 8.80859C86.8607 9.01042 87.5898 9.25456 88.1172 9.54102C88.651 9.82096 89.0449 10.1595 89.2988 10.5566C89.5592 10.9538 89.6895 11.4355 89.6895 12.002C89.6895 12.9525 89.2956 13.724 88.5078 14.3164C87.7201 14.9023 86.6882 15.1953 85.4121 15.1953C84.5462 15.1953 83.7747 15.0391 83.0977 14.7266C82.4206 14.4141 81.8932 13.9844 81.5156 13.4375C81.138 12.8906 80.9492 12.3014 80.9492 11.6699H83.2539C83.2865 12.2298 83.498 12.6628 83.8887 12.9688C84.2793 13.2682 84.7969 13.418 85.4414 13.418C86.0664 13.418 86.5417 13.3008 86.8672 13.0664C87.1927 12.8255 87.3555 12.513 87.3555 12.1289Z" fill="url(#paint0_linear_434:94)"/>
<defs>
<linearGradient id="paint0_linear_434:94" x1="0" y1="-3" x2="10.9283" y2="40.2379" gradientUnits="userSpaceOnUse">
<stop stop-color="#CE9FFC"/>
<stop offset="1" stop-color="#7367F0"/>
</linearGradient>
</defs>
</svg>
