<svg width="21" height="21" viewBox="0 0 21 21" fill="none" xmlns="http://www.w3.org/2000/svg">
<path d="M0 20.5H4V9.5H0V20.5ZM19 15.5H12L9.91 14.77L10.24 13.83L12 14.5H14.82C15.47 14.5 16 13.97 16 13.32C16 12.83 15.69 12.39 15.23 12.21L7.97 9.5H6V18.52L13 20.5L21 17.5C20.99 16.4 20.11 15.5 19 15.5ZM13 0L6 5V7.5H8L16.14 10.76C17.26 11.21 18 12.29 18 13.5H20V5L13 0ZM12.5 8.5H11.5V7.5H12.5V8.5ZM12.5 6.5H11.5V5.5H12.5V6.5ZM14.5 8.5H13.5V7.5H14.5V8.5ZM14.5 6.5H13.5V5.5H14.5V6.5Z" fill="url(#paint0_linear_267:133)"/>
<defs>
<linearGradient id="paint0_linear_267:133" x1="0" y1="0" x2="20.494" y2="20.9939" gradientUnits="userSpaceOnUse">
<stop stop-color="#CE9FFC"/>
<stop offset="1" stop-color="#7367F0"/>
</linearGradient>
</defs>
</svg>
