<svg width="95" height="16" viewBox="0 0 95 16" fill="none" xmlns="http://www.w3.org/2000/svg">
<path d="M0.478516 15V0.78125H4.67773C5.93424 0.78125 7.04753 1.0612 8.01758 1.62109C8.99414 2.18099 9.74935 2.97526 10.2832 4.00391C10.8171 5.03255 11.084 6.21094 11.084 7.53906V8.25195C11.084 9.59961 10.8138 10.7845 10.2734 11.8066C9.73958 12.8288 8.97461 13.6165 7.97852 14.1699C6.98893 14.7233 5.85286 15 4.57031 15H0.478516ZM2.94922 2.77344V13.0273H4.56055C5.85612 13.0273 6.84896 12.6237 7.53906 11.8164C8.23568 11.0026 8.59049 9.83724 8.60352 8.32031V7.5293C8.60352 5.98633 8.26823 4.80794 7.59766 3.99414C6.92708 3.18034 5.95378 2.77344 4.67773 2.77344H2.94922ZM19.6289 15C19.5247 14.7982 19.4336 14.4694 19.3555 14.0137C18.6003 14.8014 17.6758 15.1953 16.582 15.1953C15.5208 15.1953 14.6549 14.8926 13.9844 14.2871C13.3138 13.6816 12.9785 12.9329 12.9785 12.041C12.9785 10.9147 13.3952 10.0521 14.2285 9.45312C15.0684 8.84766 16.2663 8.54492 17.8223 8.54492H19.2773V7.85156C19.2773 7.30469 19.1243 6.86849 18.8184 6.54297C18.5124 6.21094 18.0469 6.04492 17.4219 6.04492C16.8815 6.04492 16.4388 6.18164 16.0938 6.45508C15.7487 6.72201 15.5762 7.0638 15.5762 7.48047H13.2031C13.2031 6.90104 13.3952 6.36068 13.7793 5.85938C14.1634 5.35156 14.6842 4.95443 15.3418 4.66797C16.0059 4.38151 16.7448 4.23828 17.5586 4.23828C18.7956 4.23828 19.7819 4.55078 20.5176 5.17578C21.2533 5.79427 21.6309 6.66667 21.6504 7.79297V12.5586C21.6504 13.5091 21.7839 14.2676 22.0508 14.834V15H19.6289ZM17.0215 13.291C17.4902 13.291 17.9297 13.1771 18.3398 12.9492C18.7565 12.7214 19.069 12.4154 19.2773 12.0312V10.0391H17.998C17.1191 10.0391 16.4583 10.1921 16.0156 10.498C15.5729 10.804 15.3516 11.237 15.3516 11.7969C15.3516 12.2526 15.5013 12.6172 15.8008 12.8906C16.1068 13.1576 16.5137 13.291 17.0215 13.291ZM30.0586 12.1289C30.0586 11.7057 29.8828 11.3835 29.5312 11.1621C29.1862 10.9408 28.61 10.7454 27.8027 10.5762C26.9954 10.4069 26.3216 10.1921 25.7812 9.93164C24.5964 9.35872 24.0039 8.52865 24.0039 7.44141C24.0039 6.52995 24.388 5.76823 25.1562 5.15625C25.9245 4.54427 26.901 4.23828 28.0859 4.23828C29.349 4.23828 30.3678 4.55078 31.1426 5.17578C31.9238 5.80078 32.3145 6.61133 32.3145 7.60742H29.9414C29.9414 7.15169 29.7721 6.77409 29.4336 6.47461C29.0951 6.16862 28.6458 6.01562 28.0859 6.01562C27.5651 6.01562 27.1387 6.13607 26.8066 6.37695C26.4811 6.61784 26.3184 6.9401 26.3184 7.34375C26.3184 7.70833 26.4714 7.99154 26.7773 8.19336C27.0833 8.39518 27.7018 8.60026 28.6328 8.80859C29.5638 9.01042 30.293 9.25456 30.8203 9.54102C31.3542 9.82096 31.748 10.1595 32.002 10.5566C32.2624 10.9538 32.3926 11.4355 32.3926 12.002C32.3926 12.9525 31.9987 13.724 31.2109 14.3164C30.4232 14.9023 29.3913 15.1953 28.1152 15.1953C27.2493 15.1953 26.4779 15.0391 25.8008 14.7266C25.1237 14.4141 24.5964 13.9844 24.2188 13.4375C23.8411 12.8906 23.6523 12.3014 23.6523 11.6699H25.957C25.9896 12.2298 26.2012 12.6628 26.5918 12.9688C26.9824 13.2682 27.5 13.418 28.1445 13.418C28.7695 13.418 29.2448 13.3008 29.5703 13.0664C29.8958 12.8255 30.0586 12.513 30.0586 12.1289ZM36.8066 5.58594C37.5814 4.6875 38.5612 4.23828 39.7461 4.23828C41.9987 4.23828 43.1413 5.52409 43.1738 8.0957V15H40.8008V8.18359C40.8008 7.45443 40.6413 6.9401 40.3223 6.64062C40.0098 6.33464 39.5475 6.18164 38.9355 6.18164C37.985 6.18164 37.2754 6.60482 36.8066 7.45117V15H34.4336V0H36.8066V5.58594ZM54.8535 9.82422C54.8535 11.4648 54.4857 12.7702 53.75 13.7402C53.0208 14.7103 52.015 15.1953 50.7324 15.1953C49.4954 15.1953 48.5319 14.7493 47.8418 13.8574L47.7246 15H45.5762V0H47.9492V5.44922C48.6328 4.64193 49.554 4.23828 50.7129 4.23828C52.002 4.23828 53.0143 4.7168 53.75 5.67383C54.4857 6.63086 54.8535 7.96875 54.8535 9.6875V9.82422ZM52.4805 9.61914C52.4805 8.47331 52.2786 7.61393 51.875 7.04102C51.4714 6.4681 50.8854 6.18164 50.1172 6.18164C49.0885 6.18164 48.3659 6.63086 47.9492 7.5293V11.8848C48.3724 12.8027 49.1016 13.2617 50.1367 13.2617C50.8789 13.2617 51.4518 12.985 51.8555 12.4316C52.2591 11.8783 52.4674 11.0417 52.4805 9.92188V9.61914ZM56.4062 9.61914C56.4062 8.58398 56.6113 7.65299 57.0215 6.82617C57.4316 5.99284 58.0078 5.35482 58.75 4.91211C59.4922 4.46289 60.3451 4.23828 61.3086 4.23828C62.7344 4.23828 63.89 4.69727 64.7754 5.61523C65.6673 6.5332 66.1491 7.75065 66.2207 9.26758L66.2305 9.82422C66.2305 10.8659 66.0286 11.7969 65.625 12.6172C65.2279 13.4375 64.6549 14.0723 63.9062 14.5215C63.1641 14.9707 62.3047 15.1953 61.3281 15.1953C59.8372 15.1953 58.6426 14.7005 57.7441 13.7109C56.8522 12.7148 56.4062 11.39 56.4062 9.73633V9.61914ZM58.7793 9.82422C58.7793 10.9115 59.0039 11.7643 59.4531 12.3828C59.9023 12.9948 60.5273 13.3008 61.3281 13.3008C62.1289 13.3008 62.7507 12.9883 63.1934 12.3633C63.6426 11.7383 63.8672 10.8236 63.8672 9.61914C63.8672 8.55143 63.6361 7.70508 63.1738 7.08008C62.7181 6.45508 62.0964 6.14258 61.3086 6.14258C60.5339 6.14258 59.9186 6.45182 59.4629 7.07031C59.0072 7.68229 58.7793 8.60026 58.7793 9.82422ZM74.5508 15C74.4466 14.7982 74.3555 14.4694 74.2773 14.0137C73.5221 14.8014 72.5977 15.1953 71.5039 15.1953C70.4427 15.1953 69.5768 14.8926 68.9062 14.2871C68.2357 13.6816 67.9004 12.9329 67.9004 12.041C67.9004 10.9147 68.3171 10.0521 69.1504 9.45312C69.9902 8.84766 71.1882 8.54492 72.7441 8.54492H74.1992V7.85156C74.1992 7.30469 74.0462 6.86849 73.7402 6.54297C73.4342 6.21094 72.9688 6.04492 72.3438 6.04492C71.8034 6.04492 71.3607 6.18164 71.0156 6.45508C70.6706 6.72201 70.498 7.0638 70.498 7.48047H68.125C68.125 6.90104 68.3171 6.36068 68.7012 5.85938C69.0853 5.35156 69.6061 4.95443 70.2637 4.66797C70.9277 4.38151 71.6667 4.23828 72.4805 4.23828C73.7174 4.23828 74.7038 4.55078 75.4395 5.17578C76.1751 5.79427 76.5527 6.66667 76.5723 7.79297V12.5586C76.5723 13.5091 76.7057 14.2676 76.9727 14.834V15H74.5508ZM71.9434 13.291C72.4121 13.291 72.8516 13.1771 73.2617 12.9492C73.6784 12.7214 73.9909 12.4154 74.1992 12.0312V10.0391H72.9199C72.041 10.0391 71.3802 10.1921 70.9375 10.498C70.4948 10.804 70.2734 11.237 70.2734 11.7969C70.2734 12.2526 70.4232 12.6172 70.7227 12.8906C71.0286 13.1576 71.4355 13.291 71.9434 13.291ZM84.5898 6.60156C84.2773 6.54948 83.9551 6.52344 83.623 6.52344C82.5358 6.52344 81.8034 6.9401 81.4258 7.77344V15H79.0527V4.43359H81.3184L81.377 5.61523C81.9499 4.69727 82.7441 4.23828 83.7598 4.23828C84.0983 4.23828 84.3783 4.28385 84.5996 4.375L84.5898 6.60156ZM85.4492 9.63867C85.4492 8.01107 85.8268 6.70573 86.582 5.72266C87.3372 4.73307 88.3496 4.23828 89.6191 4.23828C90.7389 4.23828 91.6439 4.62891 92.334 5.41016V0H94.707V15H92.5586L92.4414 13.9062C91.7318 14.7656 90.7845 15.1953 89.5996 15.1953C88.3626 15.1953 87.36 14.6973 86.5918 13.7012C85.8301 12.7051 85.4492 11.3509 85.4492 9.63867ZM87.8223 9.84375C87.8223 10.918 88.0273 11.7578 88.4375 12.3633C88.8542 12.9622 89.4434 13.2617 90.2051 13.2617C91.1751 13.2617 91.8848 12.8288 92.334 11.9629V7.45117C91.8978 6.60482 91.1947 6.18164 90.2246 6.18164C89.4564 6.18164 88.8639 6.48763 88.4473 7.09961C88.0306 7.70508 87.8223 8.61979 87.8223 9.84375Z" fill="url(#paint0_linear_267:132)"/>
<defs>
<linearGradient id="paint0_linear_267:132" x1="-1" y1="-3" x2="9.32663" y2="40.5514" gradientUnits="userSpaceOnUse">
<stop stop-color="#CE9FFC"/>
<stop offset="1" stop-color="#7367F0"/>
</linearGradient>
</defs>
</svg>
