<svg width="64" height="20" viewBox="0 0 64 20" fill="none" xmlns="http://www.w3.org/2000/svg">
<path d="M12.0469 15H9.58594V8.68164H3.22852V15H0.757812V0.78125H3.22852V6.69922H9.58594V0.78125H12.0469V15ZM17.2715 15H14.8984V4.43359H17.2715V15ZM14.752 1.68945C14.752 1.32487 14.8659 1.02214 15.0938 0.78125C15.3281 0.540365 15.6602 0.419922 16.0898 0.419922C16.5195 0.419922 16.8516 0.540365 17.0859 0.78125C17.3203 1.02214 17.4375 1.32487 17.4375 1.68945C17.4375 2.04753 17.3203 2.34701 17.0859 2.58789C16.8516 2.82227 16.5195 2.93945 16.0898 2.93945C15.6602 2.93945 15.3281 2.82227 15.0938 2.58789C14.8659 2.34701 14.752 2.04753 14.752 1.68945ZM25.7871 12.1289C25.7871 11.7057 25.6113 11.3835 25.2598 11.1621C24.9147 10.9408 24.3385 10.7454 23.5312 10.5762C22.724 10.4069 22.0501 10.1921 21.5098 9.93164C20.3249 9.35872 19.7324 8.52865 19.7324 7.44141C19.7324 6.52995 20.1165 5.76823 20.8848 5.15625C21.653 4.54427 22.6296 4.23828 23.8145 4.23828C25.0775 4.23828 26.0964 4.55078 26.8711 5.17578C27.6523 5.80078 28.043 6.61133 28.043 7.60742H25.6699C25.6699 7.15169 25.5007 6.77409 25.1621 6.47461C24.8236 6.16862 24.3743 6.01562 23.8145 6.01562C23.2936 6.01562 22.8672 6.13607 22.5352 6.37695C22.2096 6.61784 22.0469 6.9401 22.0469 7.34375C22.0469 7.70833 22.1999 7.99154 22.5059 8.19336C22.8118 8.39518 23.4303 8.60026 24.3613 8.80859C25.2923 9.01042 26.0215 9.25456 26.5488 9.54102C27.0827 9.82096 27.4766 10.1595 27.7305 10.5566C27.9909 10.9538 28.1211 11.4355 28.1211 12.002C28.1211 12.9525 27.7272 13.724 26.9395 14.3164C26.1517 14.9023 25.1198 15.1953 23.8438 15.1953C22.9779 15.1953 22.2064 15.0391 21.5293 14.7266C20.8522 14.4141 20.3249 13.9844 19.9473 13.4375C19.5697 12.8906 19.3809 12.3014 19.3809 11.6699H21.6855C21.7181 12.2298 21.9297 12.6628 22.3203 12.9688C22.7109 13.2682 23.2285 13.418 23.873 13.418C24.498 13.418 24.9733 13.3008 25.2988 13.0664C25.6243 12.8255 25.7871 12.513 25.7871 12.1289ZM33.1699 1.86523V4.43359H35.0352V6.19141H33.1699V12.0898C33.1699 12.4935 33.248 12.7865 33.4043 12.9688C33.5671 13.1445 33.8535 13.2324 34.2637 13.2324C34.5371 13.2324 34.8138 13.1999 35.0938 13.1348V14.9707C34.5534 15.1204 34.0326 15.1953 33.5312 15.1953C31.7083 15.1953 30.7969 14.1895 30.7969 12.1777V6.19141H29.0586V4.43359H30.7969V1.86523H33.1699ZM36.1191 9.61914C36.1191 8.58398 36.3242 7.65299 36.7344 6.82617C37.1445 5.99284 37.7207 5.35482 38.4629 4.91211C39.2051 4.46289 40.0579 4.23828 41.0215 4.23828C42.4473 4.23828 43.6029 4.69727 44.4883 5.61523C45.3802 6.5332 45.862 7.75065 45.9336 9.26758L45.9434 9.82422C45.9434 10.8659 45.7415 11.7969 45.3379 12.6172C44.9408 13.4375 44.3678 14.0723 43.6191 14.5215C42.877 14.9707 42.0176 15.1953 41.041 15.1953C39.5501 15.1953 38.3555 14.7005 37.457 13.7109C36.5651 12.7148 36.1191 11.39 36.1191 9.73633V9.61914ZM38.4922 9.82422C38.4922 10.9115 38.7168 11.7643 39.166 12.3828C39.6152 12.9948 40.2402 13.3008 41.041 13.3008C41.8418 13.3008 42.4635 12.9883 42.9062 12.3633C43.3555 11.7383 43.5801 10.8236 43.5801 9.61914C43.5801 8.55143 43.349 7.70508 42.8867 7.08008C42.431 6.45508 41.8092 6.14258 41.0215 6.14258C40.2467 6.14258 39.6315 6.45182 39.1758 7.07031C38.7201 7.68229 38.4922 8.60026 38.4922 9.82422ZM53.4824 6.60156C53.1699 6.54948 52.8477 6.52344 52.5156 6.52344C51.4284 6.52344 50.696 6.9401 50.3184 7.77344V15H47.9453V4.43359H50.2109L50.2695 5.61523C50.8424 4.69727 51.6367 4.23828 52.6523 4.23828C52.9909 4.23828 53.2708 4.28385 53.4922 4.375L53.4824 6.60156ZM58.8535 11.6016L61.002 4.43359H63.5312L59.332 16.6016C58.6875 18.3789 57.5938 19.2676 56.0508 19.2676C55.7057 19.2676 55.3249 19.209 54.9082 19.0918V17.2559L55.3574 17.2852C55.9564 17.2852 56.4056 17.1745 56.7051 16.9531C57.0111 16.7383 57.252 16.3737 57.4277 15.8594L57.7695 14.9512L54.0586 4.43359H56.6172L58.8535 11.6016Z" fill="url(#paint0_linear_475:259)"/>
<defs>
<linearGradient id="paint0_linear_475:259" x1="-1" y1="-3" x2="13.4657" y2="37.8814" gradientUnits="userSpaceOnUse">
<stop stop-color="#CE9FFC"/>
<stop offset="1" stop-color="#7367F0"/>
</linearGradient>
</defs>
</svg>
