<svg width="22" height="22" viewBox="0 0 22 22" fill="none" xmlns="http://www.w3.org/2000/svg">
<path d="M14.25 8C14.25 9.79493 12.7949 11.25 11 11.25V12.75C13.6234 12.75 15.75 10.6234 15.75 8H14.25ZM11 11.25C9.20507 11.25 7.75 9.79493 7.75 8H6.25C6.25 10.6234 8.37665 12.75 11 12.75V11.25ZM7.75 8C7.75 6.20507 9.20507 4.75 11 4.75V3.25C8.37665 3.25 6.25 5.37665 6.25 8H7.75ZM11 4.75C12.7949 4.75 14.25 6.20507 14.25 8H15.75C15.75 5.37665 13.6234 3.25 11 3.25V4.75ZM8 15.75H14V14.25H8V15.75ZM1.75 11C1.75 5.89137 5.89137 1.75 11 1.75V0.25C5.06294 0.25 0.25 5.06294 0.25 11H1.75ZM11 1.75C16.1086 1.75 20.25 5.89137 20.25 11H21.75C21.75 5.06294 16.9371 0.25 11 0.25V1.75ZM20.25 11C20.25 13.6233 19.159 15.9905 17.4039 17.6748L18.4425 18.7571C20.4801 16.8016 21.75 14.0485 21.75 11H20.25ZM17.4039 17.6748C15.7412 19.2705 13.4858 20.25 11 20.25V21.75C13.8882 21.75 16.5117 20.61 18.4425 18.7571L17.4039 17.6748ZM14 15.75C15.576 15.75 16.8915 16.8726 17.1876 18.3621L18.6588 18.0697C18.226 15.8918 16.3055 14.25 14 14.25V15.75ZM11 20.25C8.51425 20.25 6.25884 19.2705 4.59612 17.6748L3.55751 18.7571C5.48833 20.61 8.11182 21.75 11 21.75V20.25ZM4.59612 17.6748C2.84103 15.9905 1.75 13.6233 1.75 11H0.25C0.25 14.0485 1.51989 16.8016 3.55751 18.7571L4.59612 17.6748ZM8 14.25C5.69445 14.25 3.77403 15.8918 3.3412 18.0697L4.81243 18.3621C5.10846 16.8726 6.42396 15.75 8 15.75V14.25Z" fill="#7367F0"/>
<path d="M14.0013 15H8.00131C6.06052 15 4.44256 16.3822 4.07812 18.2159C5.8749 19.9403 8.31435 21 11.0013 21C13.6883 21 16.1277 19.9403 17.9245 18.2159C17.5601 16.3822 15.9421 15 14.0013 15Z" fill="#7367F0"/>
<path d="M17.9245 18.2159L18.4438 18.7571L18.7402 18.4726L18.6601 18.0697L17.9245 18.2159ZM4.07812 18.2159L3.34251 18.0697L3.26244 18.4726L3.55882 18.7571L4.07812 18.2159ZM8.00131 15.75H14.0013V14.25H8.00131V15.75ZM17.4052 17.6748C15.7425 19.2705 13.4871 20.25 11.0013 20.25V21.75C13.8895 21.75 16.513 20.61 18.4438 18.7571L17.4052 17.6748ZM14.0013 15.75C15.5773 15.75 16.8929 16.8726 17.1889 18.3621L18.6601 18.0697C18.2273 15.8918 16.3069 14.25 14.0013 14.25V15.75ZM11.0013 20.25C8.51556 20.25 6.26015 19.2705 4.59743 17.6748L3.55882 18.7571C5.48964 20.61 8.11313 21.75 11.0013 21.75V20.25ZM8.00131 14.25C5.69576 14.25 3.77535 15.8918 3.34251 18.0697L4.81374 18.3621C5.10977 16.8726 6.42528 15.75 8.00131 15.75V14.25Z" fill="#7367F0"/>
<path d="M15 8C15 10.2091 13.2091 12 11 12C8.79086 12 7 10.2091 7 8C7 5.79086 8.79086 4 11 4C13.2091 4 15 5.79086 15 8Z" fill="#7367F0"/>
<path d="M14.25 8C14.25 9.79493 12.7949 11.25 11 11.25V12.75C13.6234 12.75 15.75 10.6234 15.75 8H14.25ZM11 11.25C9.20507 11.25 7.75 9.79493 7.75 8H6.25C6.25 10.6234 8.37665 12.75 11 12.75V11.25ZM7.75 8C7.75 6.20507 9.20507 4.75 11 4.75V3.25C8.37665 3.25 6.25 5.37665 6.25 8H7.75ZM11 4.75C12.7949 4.75 14.25 6.20507 14.25 8H15.75C15.75 5.37665 13.6234 3.25 11 3.25V4.75Z" fill="#7367F0"/>
</svg>
