<svg width="18" height="21" viewBox="0 0 18 21" fill="none" xmlns="http://www.w3.org/2000/svg">
<path d="M8.5675 0.182507C8.68386 0.0653876 8.83881 0 9 0C9.16119 0 9.31614 0.0653876 9.4325 0.182507C10.8115 1.5701 12.7745 2.32295 14.451 2.72353C15.2805 2.92094 16.0205 3.02804 16.552 3.08579C16.827 3.1154 17.1028 3.13676 17.379 3.14984H17.39C17.5531 3.15395 17.7083 3.2249 17.8223 3.34753C17.9363 3.47016 18 3.63474 18 3.8061V8.9249C18 13.9109 15.47 18.9084 9.1865 20.9701C9.06506 21.01 8.93494 21.01 8.8135 20.9701C5.6945 19.9463 3.4795 18.1918 2.0485 16.0256C0.622 13.8642 2.59627e-08 11.3331 2.59627e-08 8.79365V3.8061C-4.69805e-05 3.63474 0.0637379 3.47016 0.177723 3.34753C0.291709 3.2249 0.446853 3.15395 0.61 3.14984H0.621L0.661 3.14826C0.923829 3.13476 1.18626 3.11375 1.448 3.08526C2.15458 3.00857 2.85616 2.8876 3.549 2.72301C5.225 2.32295 7.188 1.5701 8.5675 0.181982V0.182507ZM13.3065 7.95574C13.3676 7.89669 13.4169 7.82546 13.4514 7.74619C13.486 7.66693 13.5052 7.58122 13.5079 7.49409C13.5106 7.40695 13.4967 7.32012 13.467 7.23868C13.4374 7.15724 13.3926 7.08281 13.3353 7.01975C13.2779 6.95669 13.2092 6.90626 13.1331 6.8714C13.057 6.83654 12.9751 6.81795 12.892 6.81672C12.809 6.81549 12.7266 6.83164 12.6496 6.86423C12.5726 6.89682 12.5025 6.94519 12.4435 7.00653L7.385 12.0765L5.567 10.1671C5.44977 10.044 5.29078 9.97482 5.125 9.97482C4.95922 9.97482 4.80023 10.044 4.683 10.1671C4.56577 10.2902 4.49992 10.4571 4.49992 10.6312C4.49992 10.8052 4.56577 10.9722 4.683 11.0953L6.933 13.4578C7.173 13.7098 7.561 13.715 7.8065 13.4683L13.3065 7.95574Z" fill="#7367F0"/>
</svg>
